<?xml version="1.0" encoding="utf-8"?>
<!-- Generator: Adobe Illustrator 26.0.1, SVG Export Plug-In . SVG Version: 6.00 Build 0)  -->
<svg version="1.1" id="Layer_2" xmlns="http://www.w3.org/2000/svg" xmlns:xlink="http://www.w3.org/1999/xlink" x="0px" y="0px"
	 viewBox="0 0 152 98" style="enable-background:new 0 0 152 98;" xml:space="preserve">
<style type="text/css">
	.st0{font-family:'LaoMN-Bold';}
	.st1{font-size:36px;}
	
		.st2{fill-rule:evenodd;clip-rule:evenodd;fill:#FFFFFF;stroke:#010101;stroke-width:3.8058;stroke-linecap:round;stroke-linejoin:round;stroke-opacity:0.8412;}
</style>
<g id="Layer_4">
	<text transform="matrix(0.6887 0 0 1 0 91)" class="st0 st1">COMRADES</text>
	<g>
		<g id="layer1_00000134931717187090026560000000835786855470317953_">
			
				<path id="path8_00000173850836247112746360000012035600640545771682_" marker-end="none" marker-mid="none" marker-start="none" class="st2" d="
				M76,57.1c-17.4,0-31.5-11.6-31.5-25.9c0-7.1,3.5-13.5,9.2-18.2l0,0c1.1-1.3,3-2.2,5.1-2.2c3.5,0,6.3,2.3,6.3,5.2
				c0,1.8-1.1,3.3-2.7,4.2l0,0c-3.4,2.8-5.5,6.7-5.5,10.9c0,8.6,8.5,15.6,19.1,15.6S95,39.8,95,31.2c0-3.9-1.8-7.4-4.7-10.2
				c-1.7-0.9-2.9-2.5-2.9-4.3c0-2.9,2.8-5.2,6.3-5.2c1.7,0,3.2,0.6,4.4,1.5l0.1-0.1c5.7,4.7,9.2,11.1,9.2,18.3
				C107.5,45.5,93.4,57.1,76,57.1z M76,31.4c-3.5,0-6.3-2.3-6.3-5.3V5.3C69.7,2.3,72.5,0,76,0c3.5,0,6.3,2.3,6.3,5.3v20.9
				C82.3,29.1,79.5,31.4,76,31.4z"/>
		</g>
	</g>
</g>
</svg>
