<?xml version="1.0" encoding="utf-8"?>
<!-- Generator: Adobe Illustrator 26.0.1, SVG Export Plug-In . SVG Version: 6.00 Build 0)  -->
<svg version="1.1" id="Layer_2" xmlns="http://www.w3.org/2000/svg" xmlns:xlink="http://www.w3.org/1999/xlink" x="0px" y="0px"
	 viewBox="0 0 50 50" style="enable-background:new 0 0 50 50;" xml:space="preserve">
<style type="text/css">
	
		.st0{fill-rule:evenodd;clip-rule:evenodd;fill:#FFFFFF;stroke:#010101;stroke-width:3.8058;stroke-linecap:round;stroke-linejoin:round;stroke-opacity:0.8412;}
</style>
<g>
	<g id="layer1">
		<path id="path8" marker-end="none" marker-mid="none" marker-start="none" class="st0" d="M24.6,49.2c-12.8,0-23.1-8.9-23.1-19.9
			c0-5.5,2.6-10.4,6.7-14l0,0c0.8-1,2.2-1.7,3.7-1.7c2.6,0,4.6,1.8,4.6,4c0,1.3-0.8,2.5-2,3.3l0,0c-2.5,2.2-4.1,5.1-4.1,8.4
			c0,6.6,6.3,12,14,12s14-5.4,14-12c0-3-1.3-5.7-3.4-7.8c-1.3-0.7-2.1-1.9-2.1-3.3c0-2.2,2.1-4,4.6-4c1.2,0,2.4,0.4,3.2,1.1l0.1-0.1
			c4.2,3.6,6.8,8.6,6.8,14C47.8,40.3,37.4,49.2,24.6,49.2z M24.6,29.4c-2.6,0-4.6-1.8-4.6-4.1v-16c0-2.2,2.1-4.1,4.6-4.1
			s4.6,1.8,4.6,4.1v16C29.3,27.6,27.2,29.4,24.6,29.4z"/>
	</g>
</g>
</svg>
