<?xml version="1.0" encoding="utf-8"?>
<!-- Generator: Adobe Illustrator 26.0.1, SVG Export Plug-In . SVG Version: 6.00 Build 0)  -->
<svg version="1.1" id="Layer_2" xmlns="http://www.w3.org/2000/svg" xmlns:xlink="http://www.w3.org/1999/xlink" x="0px" y="0px"
	 viewBox="0 0 200 200" style="enable-background:new 0 0 200 200;" xml:space="preserve">
<style type="text/css">
	
		.st0{fill-rule:evenodd;clip-rule:evenodd;fill:#231F20;stroke:#000000;stroke-width:3.8058;stroke-linecap:round;stroke-linejoin:round;stroke-opacity:0.8412;}
</style>
<g>
	<g id="layer1">
		<path id="path8" marker-end="none" marker-mid="none" marker-start="none" class="st0" d="M100,200c-54.6,0-99-40.6-99-90.6
			c0-24.9,11-47.4,28.8-63.8l0.1,0.1c3.6-4.5,9.4-7.5,16-7.5c10.9,0,19.8,8.1,19.8,18.1c0,6.1-3.4,11.5-8.4,14.8l0.1,0.1
			C46.7,81,40,94.4,40,109.4c0,30.2,26.9,54.6,60,54.6s59.9-24.5,59.9-54.6c0-13.6-5.6-26-14.7-35.6c-5.4-3.2-9-8.8-9-15.2
			c0-10,8.9-18.1,19.8-18.1c5.3,0,10.2,2,13.7,5.1l0.3-0.3c17.9,16.4,29,39,29,64C199,159.4,154.6,200,100,200z M100,110
			c-11,0-19.8-8.2-19.8-18.5V18.5C80.2,8.2,89,0,100,0s19.8,8.2,19.8,18.5v73.1C119.8,101.8,111,110,100,110z"/>
	</g>
</g>
</svg>
